<svg xmlns="http://www.w3.org/2000/svg" xmlns:xlink="http://www.w3.org/1999/xlink" version="1.1" x="0px" y="0px" viewBox="-255 347 100 125" enable-background="new -255 347 100 100" xml:space="preserve"><path fill-rule="evenodd" clip-rule="evenodd" d="M-172,426h-46c-1.9,0-8-7-8-7s6.1-7,8-7h46c2.2,0,4,1.8,4,4v6  C-168,424.2-169.8,426-172,426z M-172,404h-46c-1.9,0-8-7-8-7s6.1-7,8-7h46c2.2,0,4,1.8,4,4v6C-168,402.2-169.8,404-172,404z   M-172,382h-46c-1.9,0-8-7-8-7s6.1-7,8-7h46c2.2,0,4,1.8,4,4v6C-168,380.2-169.8,382-172,382z M-237,424c-2.8,0-5-2.2-5-5s2.2-5,5-5  s5,2.2,5,5S-234.2,424-237,424z M-236,403.9v8.2c-0.3,0-0.7-0.1-1-0.1s-0.7,0.1-1,0.1v-8.2c0.3,0,0.7,0.1,1,0.1  S-236.3,403.9-236,403.9z M-237,402c-2.8,0-5-2.2-5-5s2.2-5,5-5s5,2.2,5,5S-234.2,402-237,402z M-236,381.9v8.2  c-0.3,0-0.7-0.1-1-0.1s-0.7,0.1-1,0.1v-8.2c0.3,0,0.7,0.1,1,0.1S-236.3,381.9-236,381.9z M-237,380c-2.8,0-5-2.2-5-5s2.2-5,5-5  s5,2.2,5,5S-234.2,380-237,380z M-238,368.1V363c0-0.6,0.4-1,1-1s1,0.4,1,1v5.1c-0.3,0-0.7-0.1-1-0.1S-237.7,368.1-238,368.1z   M-236,425.9v5.1c0,0.6-0.4,1-1,1s-1-0.4-1-1v-5.1c0.3,0,0.7,0.1,1,0.1S-236.3,425.9-236,425.9z"/><text x="-255" y="462" fill="#000000" font-size="5px" font-weight="bold" font-family="'Helvetica Neue', Helvetica, Arial-Unicode, Arial, Sans-serif">Created by Ashwin Dinesh</text><text x="-255" y="467" fill="#000000" font-size="5px" font-weight="bold" font-family="'Helvetica Neue', Helvetica, Arial-Unicode, Arial, Sans-serif">from the Noun Project</text></svg>