<svg height='100px' width='100px'  fill="#4f5d75" xmlns="http://www.w3.org/2000/svg" xmlns:xlink="http://www.w3.org/1999/xlink" version="1.1" x="0px" y="0px" viewBox="0 0 512 512" enable-background="new 0 0 512 512" xml:space="preserve"><g><rect x="198.6" y="329.7" width="16.4" height="16.4"></rect><rect x="231.4" y="329.7" width="16.4" height="16.4"></rect><rect x="165.9" y="329.7" width="16.4" height="16.4"></rect><path d="M485.4,174.1h-73.7V92.1H2v278.6h147.5v32.8h-32.8v16.4h32.8h114.7H297v-16.4h-32.8v-32.8h81.9v8.2   c0,13.6,11,24.6,24.6,24.6h114.7c13.6,0,24.6-11,24.6-24.6V198.6C510,185.1,499,174.1,485.4,174.1z M395.3,108.5v65.5h-24.6   c-13.6,0-24.6,11-24.6,24.6v106.5H18.4V108.5H395.3z M247.8,403.5h-81.9v-32.8h81.9V403.5z M264.2,354.3H149.5H18.4v-32.8h327.7   v32.8H264.2z M493.6,378.9c0,4.5-3.7,8.2-8.2,8.2H370.7c-4.5,0-8.2-3.7-8.2-8.2V198.6c0-4.5,3.7-8.2,8.2-8.2h114.7   c4.5,0,8.2,3.7,8.2,8.2V378.9z"></path><rect x="419.9" y="354.3" width="16.4" height="16.4"></rect><path d="M157.7,133.1H43v147.5h114.7V133.1z M141.3,264.2H59.4V149.5h81.9V264.2z"></path><rect x="182.3" y="133.1" width="131.1" height="16.4"></rect><rect x="182.3" y="198.6" width="131.1" height="16.4"></rect><rect x="182.3" y="264.2" width="131.1" height="16.4"></rect><path d="M387.1,288.8H469v-81.9h-81.9V288.8z M403.5,223.2h49.2v49.2h-49.2V223.2z"></path></g></svg>